<?xml version="1.0" standalone="no"?>
<!DOCTYPE svg PUBLIC "-//W3C//DTD SVG 20010904//EN"
 "http://www.w3.org/TR/2001/REC-SVG-20010904/DTD/svg10.dtd">
<svg version="1.0" xmlns="http://www.w3.org/2000/svg"
 width="512.000000pt" height="512.000000pt" viewBox="0 0 512.000000 512.000000"
 preserveAspectRatio="xMidYMid meet">

<g transform="translate(0.000000,512.000000) scale(0.100000,-0.100000)"
fill="#000000" stroke="none">
<path d="M501 4670 c-143 -52 -253 -181 -281 -329 -13 -71 -13 -3437 0 -3539
19 -145 104 -263 238 -329 l76 -38 2026 0 2026 0 76 38 c134 66 219 184 238
329 13 102 13 3468 0 3539 -24 130 -118 253 -239 312 l-66 32 -2020 2 c-1984
2 -2021 2 -2074 -17z m898 -955 c286 -165 517 -302 513 -306 -4 -4 -243 -142
-532 -308 l-525 -302 -3 118 c-2 95 0 120 12 129 8 6 153 91 321 189 l306 178
-129 76 c-72 42 -216 126 -321 186 l-190 110 -1 118 c0 96 3 118 14 115 7 -2
248 -138 535 -303z m1591 -835 l0 -110 -535 0 -535 0 0 110 0 110 535 0 535 0
0 -110z"/>
</g>
</svg>
